<?xml version="1.0" encoding="UTF-8"?>
<svg version="1.1" xmlns="http://www.w3.org/2000/svg" width="300" height="300">
<path d="M0 0 C0 0.66 0 1.32 0 2 C1.07894531 2.18175781 1.07894531 2.18175781 2.1796875 2.3671875 C6.86450065 3.41835056 11.0406994 5.27928552 15 8 C16.6875 11.5625 16.6875 11.5625 18 15 C19.63803967 16.25006555 19.63803967 16.25006555 21.5625 17.1875 C25.82368059 19.43430431 25.82368059 19.43430431 27 23 C27.1688051 25.86278931 27.23274535 28.62435954 27.1953125 31.484375 C27.1924826 32.29996887 27.18965271 33.11556274 27.18673706 33.95587158 C27.17556558 36.55406528 27.15046675 39.15191095 27.125 41.75 C27.11496627 43.51431793 27.10584111 45.27864128 27.09765625 47.04296875 C27.07563619 51.36211273 27.04112733 55.68099741 27 60 C27.62044189 59.98428955 28.24088379 59.9685791 28.88012695 59.95239258 C31.69082528 59.89003786 34.50137812 59.85100852 37.3125 59.8125 C38.28896484 59.78736328 39.26542969 59.76222656 40.27148438 59.73632812 C41.20927734 59.72666016 42.14707031 59.71699219 43.11328125 59.70703125 C43.97735596 59.6913208 44.84143066 59.67561035 45.73168945 59.65942383 C48.45018536 60.06759322 49.30363829 60.89592904 51 63 C51.99 61.515 51.99 61.515 53 60 C60.56255305 57.6624836 70.18963085 56.71996728 78 58 C80.49389622 59.91254879 81.79552695 61.06381759 82.47265625 64.1640625 C82.64667969 64.76992187 82.82070312 65.37578125 83 66 C85.02825698 66.91913688 85.02825698 66.91913688 87.4375 67.375 C89.9296875 68.08984375 89.9296875 68.08984375 92 69 C92.71706982 70.98248715 93.38290413 72.98415349 94 75 C95.97081174 76.31529337 97.94204607 77.22571049 100.125 78.140625 C102 79 102 79 104 81 C104.26171303 82.85468483 104.26171303 82.85468483 104.2784729 85.15078735 C104.28963638 86.02019455 104.30079987 86.88960175 104.31230164 87.78535461 C104.31446182 88.74129013 104.31662201 89.69722565 104.31884766 90.68212891 C104.33391609 92.18949364 104.33391609 92.18949364 104.34928894 93.72731018 C104.3802653 97.06038828 104.39719618 100.39338554 104.4140625 103.7265625 C104.43276252 106.03299665 104.45233504 108.33942388 104.4727478 110.64584351 C104.52419815 116.72525969 104.56375471 122.80469808 104.60089111 128.88421631 C104.64085005 135.08432569 104.69197928 141.28434164 104.7421875 147.484375 C104.83909949 159.65618449 104.92345523 171.82804658 105 184 C105.92296875 184.12761719 106.8459375 184.25523437 107.796875 184.38671875 C112.10490543 185.21154897 115.55836616 186.98298787 118.15917969 190.62182617 C119.39742499 194.12407574 119.23790057 197.57126497 119.203125 201.23828125 C119.21367556 202.87956522 119.22543234 204.52084179 119.23828125 206.16210938 C119.24857892 208.73628264 119.25002399 211.30941914 119.22998047 213.88354492 C119.2151416 216.37767149 119.23774806 218.86931353 119.265625 221.36328125 C119.24257294 222.50426018 119.24257294 222.50426018 119.21905518 223.66828918 C119.29954389 228.1329709 119.99225172 230.41180153 123.02246094 233.76245117 C123.56835876 234.28272385 124.11425659 234.80299652 124.67669678 235.33903503 C127.07738996 238.35230305 126.38791484 241.31480899 126 245 C121.03229596 245.18258988 117.05280336 244.65748954 112.3125 243.1875 C56.25468748 225.99468089 -5.46563081 223.38752511 -63 234 C-64.44753662 234.25885986 -64.44753662 234.25885986 -65.92431641 234.52294922 C-79.19920438 236.90614776 -92.31161374 239.65122677 -105.34838867 243.12036133 C-106.28142822 243.3655249 -107.21446777 243.61068848 -108.17578125 243.86328125 C-108.98958252 244.08282471 -109.80338379 244.30236816 -110.6418457 244.52856445 C-113.16832184 245.03365043 -115.43006037 245.15179322 -118 245 C-119 244 -119 244 -119.09765625 242.15234375 C-119.06510417 240.1015625 -119.03255208 238.05078125 -119 236 C-117.7934375 235.5978125 -117.7934375 235.5978125 -116.5625 235.1875 C-115.2940625 234.5996875 -115.2940625 234.5996875 -114 234 C-113.67 233.01 -113.34 232.02 -113 231 C-112.34 231 -111.68 231 -111 231 C-111 230.34 -111 229.68 -111 229 C-110.34 229 -109.68 229 -109 229 C-109.00691345 228.09470283 -109.00691345 228.09470283 -109.01396656 227.17111683 C-109.12441634 212.48190631 -109.20714216 197.79272033 -109.25906086 183.10319233 C-109.28483622 175.99938858 -109.31997336 168.8958621 -109.37719727 161.79223633 C-109.4323798 154.93875178 -109.46140979 148.08555571 -109.47438622 141.23186302 C-109.48363551 138.6151189 -109.50169694 135.99839083 -109.52865028 133.38176918 C-109.56486741 129.72071685 -109.56994811 126.06086041 -109.56762695 122.3996582 C-109.58560333 121.31424744 -109.60357971 120.22883667 -109.62210083 119.11053467 C-109.57162838 111.76917874 -109.57162838 111.76917874 -106.64543152 107.83171082 C-103.62133672 105.73781154 -101.83604345 105.31937506 -98.1875 105.1875 C-96.72376953 105.11595703 -96.72376953 105.11595703 -95.23046875 105.04296875 C-94.49441406 105.02878906 -93.75835937 105.01460938 -93 105 C-93.01160156 104.07316406 -93.02320312 103.14632812 -93.03515625 102.19140625 C-93.04417969 100.99386719 -93.05320312 99.79632813 -93.0625 98.5625 C-93.07410156 97.36753906 -93.08570312 96.17257813 -93.09765625 94.94140625 C-93 92 -93 92 -92 91 C-88.5 90.875 -88.5 90.875 -85 91 C-82.63329671 93.36670329 -83.2385438 100.03524138 -83 103 C-79.37 102.67 -75.74 102.34 -72 102 C-72.00666183 100.99188766 -72.01332367 99.98377533 -72.02018738 98.94511414 C-72.08094805 89.45416999 -72.12594834 79.96326519 -72.15543652 70.47217083 C-72.17110624 65.59244888 -72.19236831 60.71288368 -72.22631836 55.83325195 C-72.25886528 51.12594368 -72.27684317 46.41878637 -72.28463173 41.71137428 C-72.29018364 39.91357864 -72.30102494 38.11579146 -72.31719017 36.31805992 C-72.33890262 33.80389796 -72.34196956 31.29036336 -72.34057617 28.77612305 C-72.351362 28.02949905 -72.36214783 27.28287506 -72.3732605 26.5136261 C-72.34295816 21.47544654 -72.34295816 21.47544654 -70.62007141 19.08699036 C-68.59624524 17.72909989 -66.55930722 16.75681028 -64.3125 15.8125 C-63.50425781 15.46832031 -62.69601563 15.12414062 -61.86328125 14.76953125 C-61.24839844 14.51558594 -60.63351563 14.26164062 -60 14 C-59.90912109 12.60974609 -59.90912109 12.60974609 -59.81640625 11.19140625 C-59.73261719 9.99386719 -59.64882812 8.79632813 -59.5625 7.5625 C-59.48128906 6.36753906 -59.40007812 5.17257813 -59.31640625 3.94140625 C-59 1 -59 1 -58 0 C-56.00041636 -0.04080783 -53.99954746 -0.04254356 -52 0 C-50.39644899 3.50776784 -49.77963136 6.14354879 -50 10 C-49.34 10 -48.68 10 -48 10 C-47.814375 8.8553125 -47.814375 8.8553125 -47.625 7.6875 C-47 5 -47 5 -45 2 C-42.37719727 1.29223633 -42.37719727 1.29223633 -39.06640625 0.83203125 C-37.85919922 0.66123047 -36.65199219 0.49042969 -35.40820312 0.31445312 C-34.13912109 0.14880859 -32.87003906 -0.01683594 -31.5625 -0.1875 C-30.32822266 -0.36474609 -29.09394531 -0.54199219 -27.82226562 -0.72460938 C-7.96504721 -3.44434474 -7.96504721 -3.44434474 0 0 Z " fill="#24344F" transform="translate(145,29)"/>
<path d="M0 0 C0.79996399 0.14755737 1.59992798 0.29511475 2.4241333 0.44714355 C23.90922546 4.42693526 45.31395846 8.78024334 66.63182068 13.5758667 C71.38929095 14.64493524 76.15166496 15.68996665 80.91633606 16.72645569 C84.60228637 17.5296728 88.28648718 18.34073068 91.97042847 19.15310669 C93.76675757 19.54772892 95.56372835 19.93944262 97.36135864 20.32809448 C99.87176598 20.87170294 102.37940186 21.42671067 104.88671875 21.984375 C105.63418365 22.14351883 106.38164856 22.30266266 107.15176392 22.46662903 C114.89681327 24.21469521 114.89681327 24.21469521 118 27 C118.56762695 30.1862793 118.56762695 30.1862793 118.48828125 34.07421875 C118.47766914 35.09996758 118.47766914 35.09996758 118.46684265 36.1464386 C118.43888004 38.32791159 118.37615064 40.50680494 118.3125 42.6875 C118.28741897 44.1672806 118.26460544 45.64710149 118.24414062 47.12695312 C118.18905135 50.75213863 118.10277108 54.37581753 118 58 C112.2723284 57.08150476 106.68804634 55.84294962 101.0625 54.4375 C100.09892578 54.22287109 99.13535156 54.00824219 98.14257812 53.78710938 C91.73491192 52.15343918 88.51827218 50.07886959 84.4777832 44.85180664 C81.18055721 40.72006054 76.01032603 38.58192176 70.8984375 37.59375 C65.75281304 37.34774405 60.60959881 38.78209609 56 41 C55.34 41.71027344 54.68 42.42054688 54 43.15234375 C49.10836241 46.16503201 44.2331158 44.93153057 38.6875 44.3125 C37.58470703 44.20744141 36.48191406 44.10238281 35.34570312 43.99414062 C32.2268027 43.69062972 29.11420801 43.34785116 26 43 C25.1855542 42.92620117 24.3711084 42.85240234 23.53198242 42.77636719 C18.17092725 42.24878881 16.00265641 40.5768419 12 37 C5.6774993 33.25811183 -0.7745623 33.17245603 -8 34 C-11.93298915 35.28485689 -15.04679054 37.04679054 -18 40 C-20.37246911 40.18625562 -22.68679943 40.27136945 -25.0625 40.3125 C-44.58539454 41.1040831 -63.67051461 46.71746954 -82.30712891 52.2097168 C-85.53323777 53.15649054 -88.76719706 54.07634202 -92 55 C-92 38.17 -92 21.34 -92 4 C-58.41732216 -5.59505081 -33.90312316 -6.26302652 0 0 Z " fill="#C11D28" transform="translate(137,197)"/>
<path d="M0 0 C0 24.09 0 48.18 0 73 C-2.64 73 -5.28 73 -8 73 C-8 75.31 -8 77.62 -8 80 C-11.96 80 -15.92 80 -20 80 C-20 77.69 -20 75.38 -20 73 C-21.98 73 -23.96 73 -26 73 C-26 75.64 -26 78.28 -26 81 C-30.29 81 -34.58 81 -39 81 C-39 78.36 -39 75.72 -39 73 C-41.31 73 -43.62 73 -46 73 C-46 98.41 -46 123.82 -46 150 C-47.98 150 -49.96 150 -52 150 C-52 106.77 -52 63.54 -52 19 C-40 14 -40 14 -35.5625 12.625 C-30.91303879 10.50419313 -29.6900393 8.27241536 -27 4 C-23.36944488 2.18472244 -19.1746191 2.0247501 -15.1875 1.4375 C-14.28451172 1.29892578 -13.38152344 1.16035156 -12.45117188 1.01757812 C-11.57396484 0.88673828 -10.69675781 0.75589844 -9.79296875 0.62109375 C-8.9939917 0.5017749 -8.19501465 0.38245605 -7.37182617 0.25952148 C-5 0 -5 0 0 0 Z " fill="#4F83F2" transform="translate(133,35)"/>
<path d="M0 0 C0.65276917 0.14530151 1.30553833 0.29060303 1.97808838 0.44030762 C9.02750439 2.01918839 16.0415994 3.71445442 23.015625 5.59765625 C24.14258789 5.90195557 25.26955078 6.20625488 26.43066406 6.51977539 C29.17860949 7.53609639 30.50380992 8.25004918 32.25 10.5625 C32.7654245 13.36131044 32.47876238 15.68009395 32.25 18.5625 C30.25 20.5625 30.25 20.5625 28.04296875 20.828125 C27.18316406 20.82296875 26.32335937 20.8178125 25.4375 20.8125 C24.15939453 20.82023437 24.15939453 20.82023437 22.85546875 20.828125 C20.25 20.5625 20.25 20.5625 18.00634766 19.6472168 C14.88381679 18.41839442 11.81669875 17.67878966 8.54296875 16.94140625 C7.90566833 16.79688522 7.26836792 16.6523642 6.61175537 16.50346375 C4.5547802 16.03885189 2.49638066 15.58108928 0.4375 15.125 C-0.26817108 14.96809692 -0.97384216 14.81119385 -1.70089722 14.64953613 C-6.3816617 13.6100613 -11.06504458 12.58294073 -15.75 11.5625 C-16.45717667 11.40692123 -17.16435333 11.25134247 -17.89295959 11.09104919 C-22.49509764 10.08226473 -27.08596602 9.22196994 -31.75 8.5625 C-32.68215332 8.42859863 -33.61430664 8.29469727 -34.57470703 8.15673828 C-69.00414238 3.45580632 -104.51201291 3.61270868 -138.75 9.5625 C-139.58499023 9.70091309 -140.41998047 9.83932617 -141.28027344 9.98193359 C-145.79557034 10.73382783 -150.27049889 11.61719701 -154.75 12.5625 C-156.32137836 12.87488853 -157.89300931 13.18600824 -159.46484375 13.49609375 C-166.71446335 14.94930095 -173.78580805 16.47302492 -180.8125 18.8125 C-186.09598077 20.5286178 -191.20500771 21.5297806 -196.75 20.5625 C-198.75 18.5625 -198.75 18.5625 -198.9453125 16.3984375 C-198.92210937 15.58632813 -198.89890625 14.77421875 -198.875 13.9375 C-198.85695312 13.12023437 -198.83890625 12.30296875 -198.8203125 11.4609375 C-198.79710937 10.83445312 -198.77390625 10.20796875 -198.75 9.5625 C-194.16450025 7.0645904 -189.59920538 5.52335778 -184.5625 4.25 C-183.75659424 4.04270264 -182.95068848 3.83540527 -182.12036133 3.62182617 C-174.75307045 1.75814461 -167.34985984 0.0491239 -159.9375 -1.625 C-158.84219971 -1.87483643 -157.74689941 -2.12467285 -156.6184082 -2.38208008 C-105.04825262 -13.81510447 -51.2594594 -11.43479082 0 0 Z " fill="#D1D4DE" transform="translate(231.75,277.4375)"/>
<path d="M0 0 C2.31 0 4.62 0 7 0 C7 2.64 7 5.28 7 8 C11.29 8 15.58 8 20 8 C20 5.36 20 2.72 20 0 C21.98 0 23.96 0 26 0 C26 2.31 26 4.62 26 7 C29.96 7 33.92 7 38 7 C38 4.69 38 2.38 38 0 C40.64 0 43.28 0 46 0 C46.09893328 5.4809035 46.17149865 10.96128645 46.21972656 16.44287109 C46.23983261 18.30722101 46.2671218 20.17150794 46.30175781 22.03564453 C46.35032121 24.71662948 46.37297838 27.39678023 46.390625 30.078125 C46.41127014 30.91055725 46.43191528 31.7429895 46.45318604 32.60064697 C46.45544767 38.44334174 46.45544767 38.44334174 44.02246094 41.41699219 C43.35504883 41.93938477 42.68763672 42.46177734 42 43 C41.2127322 45.1381966 41.2127322 45.1381966 41 47 C38.98177083 47.16276042 36.96354167 47.32552083 34.9453125 47.48828125 C32.60480784 47.87393036 32.60480784 47.87393036 31 51 C29.35178756 52.03013277 27.68496298 53.03114628 26 54 C23.47871644 56.52128356 23.70646931 57.51239013 23.5859375 61.0078125 C23.55032715 61.8961377 23.5147168 62.78446289 23.47802734 63.69970703 C23.44402832 64.83005371 23.4100293 65.96040039 23.375 67.125 C23.25125 70.71375 23.1275 74.3025 23 78 C11.615 77.505 11.615 77.505 0 77 C0 51.59 0 26.18 0 0 Z " fill="#164FE6" transform="translate(87,108)"/>
<path d="M0 0 C9.56494892 -0.68828115 12.26177691 2.36189126 22.16445923 7.31323242 C22.16445923 18.86323242 22.16445923 30.41323242 22.16445923 42.31323242 C17.1550062 41.68705079 12.46460132 41.04046984 7.56680298 40.00854492 C6.35991821 39.75621094 5.15303345 39.50387695 3.90957642 39.24389648 C2.65306274 38.97802734 1.39654907 38.7121582 0.10195923 38.43823242 C-2.49806876 37.89284803 -5.09848117 37.349312 -7.69882202 36.80541992 C-9.55434692 36.41628418 -9.55434692 36.41628418 -11.44735718 36.01928711 C-16.52297138 34.96159319 -21.60705791 33.95097529 -26.69491577 32.95385742 C-29.16918869 32.44915499 -31.62189441 31.90118534 -34.08163452 31.33276367 C-39.07006679 30.21595048 -44.08884815 29.46697767 -49.14804077 28.75073242 C-50.89439589 28.50125312 -52.64050109 28.2500166 -54.38632202 27.99682617 C-55.14598267 27.88910889 -55.90564331 27.7813916 -56.68832397 27.67041016 C-58.75829833 27.32608128 -60.79977673 26.82217343 -62.83554077 26.31323242 C-62.83554077 19.38323242 -62.83554077 12.45323242 -62.83554077 5.31323242 C-55.20290644 4.65636117 -47.5699478 4.00350998 -39.93638897 3.35747528 C-36.39075829 3.05724912 -32.84528721 2.75535378 -29.30014038 2.44946289 C-25.87046926 2.15360063 -22.44043263 1.86235918 -19.01011086 1.57414246 C-17.0830578 1.41106956 -15.15639763 1.24337478 -13.22975159 1.07556152 C-10.85233055 0.87730598 -8.47339456 0.69626365 -6.09320068 0.53466797 C-4.0590234 0.39639719 -2.02654394 0.22386533 0 0 Z " fill="#FAFAFB" transform="translate(179.83554077148438,160.686767578125)"/>
<path d="M0 0 C0 14.52 0 29.04 0 44 C-5.5275 44.103125 -11.055 44.20625 -16.75 44.3125 C-18.48862305 44.35802002 -20.22724609 44.40354004 -22.01855469 44.45043945 C-23.40297518 44.46504804 -24.7874172 44.47778785 -26.171875 44.48828125 C-27.24236084 44.526651 -27.24236084 44.526651 -28.33447266 44.5657959 C-30.42480469 44.56762695 -30.42480469 44.56762695 -34 44 C-36.36425781 41.53198242 -36.36425781 41.53198242 -38 39 C-44.15568565 35.92215717 -53.69772901 37.82247897 -60.1953125 39.3671875 C-62.30186849 40.02204066 -62.30186849 40.02204066 -65 42 C-65 29.46 -65 16.92 -65 4 C-60.730625 3.71125 -56.46125 3.4225 -52.0625 3.125 C-41.16198861 2.38447108 -30.27019377 1.57556217 -19.38696289 0.60986328 C-18.44199951 0.52978027 -17.49703613 0.44969727 -16.5234375 0.3671875 C-15.71825684 0.29612793 -14.91307617 0.22506836 -14.08349609 0.15185547 C-9.3944074 -0.07907194 -4.69477159 0 0 0 Z " fill="#F85157" transform="translate(224,106)"/>
<path d="M0 0 C0.79996399 0.14755737 1.59992798 0.29511475 2.4241333 0.44714355 C23.90922546 4.42693526 45.31395846 8.78024334 66.63182068 13.5758667 C71.38929095 14.64493524 76.15166496 15.68996665 80.91633606 16.72645569 C84.60228637 17.5296728 88.28648718 18.34073068 91.97042847 19.15310669 C93.76675757 19.54772892 95.56372835 19.93944262 97.36135864 20.32809448 C99.87176598 20.87170294 102.37940186 21.42671067 104.88671875 21.984375 C105.63418365 22.14351883 106.38164856 22.30266266 107.15176392 22.46662903 C111.24570014 23.39063495 114.62030757 24.46890071 118 27 C118.65587007 30.03799017 118.223446 32.91644523 118 36 C112.2631711 35.51473419 106.94901745 34.56961202 101.4375 32.875 C88.277819 29.0535851 74.84134362 26.35818226 61.44396973 23.51873779 C58.86682863 22.97173409 56.29030495 22.42188856 53.71386719 21.87158203 C28.19919178 16.37890215 28.19919178 16.37890215 2.5625 11.5 C1.73161865 11.35216064 0.9007373 11.20432129 0.04467773 11.05200195 C-29.32511157 6.11285594 -57.95729045 8.54139958 -86.05078125 18.08203125 C-89 19 -89 19 -92 19 C-92 14.05 -92 9.1 -92 4 C-85.01917654 1.92788237 -78.02272471 -0.07453867 -71 -2 C-69.97036133 -2.28641357 -69.97036133 -2.28641357 -68.91992188 -2.57861328 C-46.24509566 -8.68760772 -22.60566658 -4.17601318 0 0 Z " fill="#E2E2E9" transform="translate(137,197)"/>
<path d="M0 0 C2.65592046 0.42138969 5.31258955 0.83785099 7.96936035 1.25384521 C20.77784936 3.26153944 33.58013353 5.30644646 46.37854004 7.37738037 C46.37854004 8.03738037 46.37854004 8.69738037 46.37854004 9.37738037 C45.49102051 9.63261475 45.49102051 9.63261475 44.58557129 9.89300537 C43.40027832 10.256521 43.40027832 10.256521 42.19104004 10.62738037 C41.41373535 10.85941162 40.63643066 11.09144287 39.83557129 11.33050537 C37.23027783 12.24699522 37.23027783 12.24699522 35.34729004 14.52972412 C30.48431651 17.55628528 25.59190832 16.30670662 20.06604004 15.68988037 C18.41185059 15.53229248 18.41185059 15.53229248 16.72424316 15.371521 C13.60534274 15.06801009 10.49274805 14.72523153 7.37854004 14.37738037 C6.56409424 14.30358154 5.74964844 14.22978271 4.91052246 14.15374756 C-0.45053271 13.62616918 -2.61880355 11.95422227 -6.62145996 8.37738037 C-12.94396066 4.6354922 -19.39602226 4.5498364 -26.62145996 5.37738037 C-30.55444912 6.66223726 -33.6682505 8.42417091 -36.62145996 11.37738037 C-38.99392907 11.56363599 -41.30825939 11.64874982 -43.68395996 11.68988037 C-64.15155952 12.51976786 -84.09171197 18.63355957 -103.62145996 24.37738037 C-105.95347986 25.04878049 -108.28722162 25.71372437 -110.62145996 26.37738037 C-110.62145996 21.75738037 -110.62145996 17.13738037 -110.62145996 12.37738037 C-102.03963432 8.98237243 -93.49469036 5.91258906 -84.62145996 3.37738037 C-83.90683594 3.17080811 -83.19221191 2.96423584 -82.45593262 2.75140381 C-54.52331455 -5.24954437 -28.54407687 -4.53794427 0 0 Z " fill="#D9DAE3" transform="translate(155.6214599609375,225.62261962890625)"/>
<path d="M0 0 C4.02244969 1.60897987 6.01218515 2.58409927 9.1875 5.1875 C11.53306677 7.10252297 13.77234725 8.87342831 16.42362976 10.34750366 C23.46879964 14.50777226 23.46879964 14.50777226 24.88304138 18.48060608 C25.15636072 21.42858229 25.12709091 24.22681917 24.9765625 27.18359375 C24.95533829 28.76685204 24.95533829 28.76685204 24.9336853 30.38209534 C24.87792373 33.73684502 24.75253443 37.08478815 24.625 40.4375 C24.57481503 42.71800213 24.52919191 44.99860952 24.48828125 47.27929688 C24.37832701 52.85516708 24.21125266 58.42709747 24 64 C22.01432292 64.22786458 20.02864583 64.45572917 18.04296875 64.68359375 C15.80603607 64.97170735 15.80603607 64.97170735 13 66 C11.71225554 69.86323338 11.76617207 73.57490537 11.68359375 77.60546875 C11.66281265 78.44467361 11.64203156 79.28387848 11.62062073 80.14851379 C11.55525982 82.82809294 11.49630286 85.50776969 11.4375 88.1875 C11.39430198 90.00456737 11.35068727 91.82162488 11.30664062 93.63867188 C11.1995922 98.09234799 11.09828681 102.54612226 11 107 C7.37 107 3.74 107 0 107 C0 71.69 0 36.38 0 0 Z " fill="#1D55E3" transform="translate(140,39)"/>
<path d="M0 0 C1.9375 0.1875 1.9375 0.1875 4 1 C5.93227641 4.11914281 6.60518324 7.31572957 7.375 10.875 C9.02167401 17.52391008 9.02167401 17.52391008 13 23 C19.49626249 26.52688878 26.8732443 28.21153659 34 30 C34.495 32.475 34.495 32.475 35 35 C34.2265625 35.18175781 33.453125 35.36351562 32.65625 35.55078125 C29.42679591 36.33016683 26.21199803 37.15162214 23 38 C22.21882813 38.20496094 21.43765625 38.40992188 20.6328125 38.62109375 C15.22559182 40.31479517 11.71168886 42.97090346 9 48 C7.72057186 51.89551124 6.67940781 55.77667224 5.76171875 59.76953125 C5 63 5 63 4 65 C2.35 65 0.7 65 -1 65 C-1.31453125 63.75863281 -1.6290625 62.51726563 -1.953125 61.23828125 C-2.3847625 59.59618207 -2.81709067 57.95426434 -3.25 56.3125 C-3.45496094 55.49587891 -3.65992188 54.67925781 -3.87109375 53.83789062 C-5.14685242 49.06346044 -6.42147714 45.59244708 -10 42 C-16.47499887 38.48097888 -23.92464755 36.93321003 -31 35 C-31 33.35 -31 31.7 -31 30 C-25.01171875 28.2890625 -19.0234375 26.578125 -13.03515625 24.8671875 C-12.03355469 24.58101562 -11.03195313 24.29484375 -10 24 C-10 23.34 -10 22.68 -10 22 C-9.34 22 -8.68 22 -8 22 C-5.86727 16.96080539 -4.34698397 11.76216847 -2.76757812 6.53125 C-1.1043266 1.1043266 -1.1043266 1.1043266 0 0 Z " fill="#FDCA13" transform="translate(234,1)"/>
<path d="M0 0 C0 15.51 0 31.02 0 47 C-10.89 49.475 -10.89 49.475 -22 52 C-22.495 52.495 -22.495 52.495 -23 53 C-24.65 53 -26.3 53 -28 53 C-28 36.17 -28 19.34 -28 2 C-5 0 -5 0 0 0 Z " fill="#063CB8" transform="translate(73,140)"/>
<path d="M0 0 C0.04254356 1.99954746 0.04080783 4.00041636 0 6 C-2.16897816 8.16897816 -6.73645459 7.74565527 -9.75 8.0625 C-10.96816406 8.19881836 -10.96816406 8.19881836 -12.2109375 8.33789062 C-16.15809984 8.76539274 -20.0229564 9.12125133 -24 9 C-23.96003906 9.89976563 -23.92007813 10.79953125 -23.87890625 11.7265625 C-25 15 -25 15 -26.92529297 16.24511719 C-29.56427604 17.40724772 -32.21907395 18.41335445 -34.9375 19.375 C-36.33645508 19.90673828 -36.33645508 19.90673828 -37.76367188 20.44921875 C-44.57396236 23 -44.57396236 23 -47 23 C-47 64.91 -47 106.82 -47 150 C-48.65 150 -50.3 150 -52 150 C-52 106.77 -52 63.54 -52 19 C-40 14 -40 14 -35.5625 12.625 C-30.91303879 10.50419313 -29.6900393 8.27241536 -27 4 C-23.36944488 2.18472244 -19.1746191 2.0247501 -15.1875 1.4375 C-14.28451172 1.29892578 -13.38152344 1.16035156 -12.45117188 1.01757812 C-11.57396484 0.88673828 -10.69675781 0.75589844 -9.79296875 0.62109375 C-8.9939917 0.5017749 -8.19501465 0.38245605 -7.37182617 0.25952148 C-4.89596326 -0.01138354 -2.488625 -0.04390229 0 0 Z " fill="#BACEF2" transform="translate(133,35)"/>
<path d="M0 0 C11.55 0.33 23.1 0.66 35 1 C35 20.14 35 39.28 35 59 C30.38 58.01 25.76 57.02 21 56 C21.0220752 54.85523193 21.04415039 53.71046387 21.06689453 52.53100586 C21.1359204 48.26078901 21.13871273 43.9925951 21.12207031 39.72192383 C21.12401036 37.87806793 21.14362766 36.03413887 21.18164062 34.19067383 C21.83538985 23.59620733 21.83538985 23.59620733 17.76855469 14.36767578 C15.13337159 12.51826042 15.13337159 12.51826042 12.34326172 11.31860352 C9.37070862 9.64588427 9.05993343 8.15410494 8 5 C6.07507643 3.97839563 6.07507643 3.97839563 3.875 3.6875 C2.59625 3.460625 1.3175 3.23375 0 3 C0 2.01 0 1.02 0 0 Z " fill="#B21622" transform="translate(189,149)"/>
<path d="M0 0 C0 6.27 0 12.54 0 19 C-5.41848248 20.80616083 -10.51223651 22.44679522 -16 23.8125 C-22.65738719 25.5459838 -29.08605561 27.69564266 -35.54101562 30.06958008 C-40.81472155 32 -40.81472155 32 -43 32 C-43 24.74 -43 17.48 -43 10 C-11.16438356 0 -11.16438356 0 0 0 Z " fill="#F55E67" transform="translate(88,206)"/>
<path d="M0 0 C2.97 0.99 5.94 1.98 9 3 C9 35.01 9 67.02 9 100 C2 100 2 100 0 99 C0 66.33 0 33.66 0 0 Z " fill="#A7121F" transform="translate(232,111)"/>
<path d="M0 0 C0.33 0 0.66 0 1 0 C1 18.48 1 36.96 1 56 C7.6 54.68 14.2 53.36 21 52 C21.99 52 22.98 52 24 52 C24 55.96 24 59.92 24 64 C22.01432292 64.22786458 20.02864583 64.45572917 18.04296875 64.68359375 C15.80603607 64.97170735 15.80603607 64.97170735 13 66 C11.71225554 69.86323338 11.76617207 73.57490537 11.68359375 77.60546875 C11.66281265 78.44467361 11.64203156 79.28387848 11.62062073 80.14851379 C11.55525982 82.82809294 11.49630286 85.50776969 11.4375 88.1875 C11.39430198 90.00456737 11.35068727 91.82162488 11.30664062 93.63867188 C11.1995922 98.09234799 11.09828681 102.54612226 11 107 C7.37 107 3.74 107 0 107 C0 71.69 0 36.38 0 0 Z " fill="#0835C2" transform="translate(140,39)"/>
<path d="M0 0 C10.54249216 -1.35546328 14.57960718 1.78980359 25 7 C25 18.55 25 30.1 25 42 C16 40.875 16 40.875 12.71875 40.24609375 C12.02265625 40.11396484 11.3265625 39.98183594 10.609375 39.84570312 C9.91328125 39.71099609 9.2171875 39.57628906 8.5 39.4375 C7.40945312 39.22963867 7.40945312 39.22963867 6.296875 39.01757812 C4.53081963 38.68063335 2.76534574 38.34064317 1 38 C1 37.67 1 37.34 1 37 C2.65 37 4.3 37 6 37 C6 25.12 6 13.24 6 1 C4.02 1 2.04 1 0 1 C0 0.67 0 0.34 0 0 Z " fill="#BDC0D2" transform="translate(177,161)"/>
<path d="M0 0 C0.91910156 0.00644531 1.83820313 0.01289063 2.78515625 0.01953125 C4.9375 0.1875 4.9375 0.1875 5.9375 1.1875 C6.00994053 3.20714199 6.02127188 5.22917124 6 7.25 C5.99097656 8.35472656 5.98195312 9.45945313 5.97265625 10.59765625 C5.96105469 11.45230469 5.94945312 12.30695313 5.9375 13.1875 C5.29425781 13.31278076 4.65101562 13.43806152 3.98828125 13.56713867 C-7.92443936 15.90910987 -19.60725761 18.36205196 -31.11328125 22.26953125 C-34.0625 23.1875 -34.0625 23.1875 -37.0625 23.1875 C-37.0625 18.2375 -37.0625 13.2875 -37.0625 8.1875 C-33.77225415 7.22405784 -30.48044022 6.26665384 -27.1875 5.3125 C-26.2696875 5.04308594 -25.351875 4.77367187 -24.40625 4.49609375 C-8.37530697 -0.13255882 -8.37530697 -0.13255882 0 0 Z " fill="#F9F8F9" transform="translate(82.0625,192.8125)"/>
<path d="M0 0 C0 4.62 0 9.24 0 14 C-1.67964844 14.44730469 -3.35929687 14.89460937 -5.08984375 15.35546875 C-17.77620876 18.74557977 -30.42961594 22.20087278 -43 26 C-43 21.38 -43 16.76 -43 12 C-34.41943167 8.60548945 -25.85948314 5.57530317 -17 3 C-15.99324219 2.69835937 -14.98648438 2.39671875 -13.94921875 2.0859375 C-12.99660156 1.81007812 -12.04398438 1.53421875 -11.0625 1.25 C-10.22847656 1.00765625 -9.39445312 0.7653125 -8.53515625 0.515625 C-6 0 -6 0 0 0 Z " fill="#FBFAFB" transform="translate(88,226)"/>
<path d="M0 0 C0.66 0.66 1.32 1.32 2 2 C4.23035297 2.27741245 4.23035297 2.27741245 6.7890625 2.1953125 C7.63678223 2.19031738 8.48450195 2.18532227 9.35791016 2.18017578 C10.97511963 2.15286377 10.97511963 2.15286377 12.625 2.125 C17.760625 2.063125 17.760625 2.063125 23 2 C23 9.26 23 16.52 23 24 C11.615 23.505 11.615 23.505 0 23 C0 15.41 0 7.82 0 0 Z " fill="#0737C2" transform="translate(87,162)"/>
<path d="M0 0 C0 4.29 0 8.58 0 13 C-1.23492187 13.17015625 -2.46984375 13.3403125 -3.7421875 13.515625 C-13.32401788 14.87439196 -22.76370402 16.44849289 -32.17333984 18.72949219 C-35.8562283 19.60641109 -39.20845839 20.21517555 -43 20 C-43 17.36 -43 14.72 -43 12 C-35.40563008 8.64977476 -27.60881925 6.37109821 -19.59301758 4.28027344 C-17.53970755 3.74404771 -15.48951435 3.19693909 -13.43945312 2.6484375 C-3.42786197 0 -3.42786197 0 0 0 Z " fill="#4376DA" transform="translate(88,240)"/>
<path d="M0 0 C0 1.65 0 3.3 0 5 C-1.31484375 5.03738281 -2.6296875 5.07476562 -3.984375 5.11328125 C-22.71438654 5.73258002 -41.33874977 7.34361147 -60 9 C-60.0093457 9.89307861 -60.01869141 10.78615723 -60.02832031 11.70629883 C-60.07235304 15.02235162 -60.13396861 18.33710939 -60.20751953 21.65258789 C-60.23573182 23.08703683 -60.25694524 24.52164129 -60.27099609 25.95629883 C-60.29242449 28.01985302 -60.33906467 30.08153706 -60.390625 32.14453125 C-60.41157227 33.38565674 -60.43251953 34.62678223 -60.45410156 35.90551758 C-61 39 -61 39 -65 42 C-65 29.46 -65 16.92 -65 4 C-60.730625 3.71125 -56.46125 3.4225 -52.0625 3.125 C-41.16198861 2.38447108 -30.27019377 1.57556217 -19.38696289 0.60986328 C-12.90888867 0.06086458 -6.50031976 -0.09966419 0 0 Z " fill="#F0C0C4" transform="translate(224,106)"/>
<path d="M0 0 C1.65 0 3.3 0 5 0 C5 25.41 5 50.82 5 77 C3.35 77 1.7 77 0 77 C0 51.59 0 26.18 0 0 Z " fill="#ABC1EE" transform="translate(81,108)"/>
<path d="M0 0 C7.04050471 0.52432311 13.7133034 1.68408886 20.5625 3.375 C21.44357422 3.58382812 22.32464844 3.79265625 23.23242188 4.0078125 C28.93723303 5.38875572 34.45524507 7.07481605 40 9 C40 12.3 40 15.6 40 19 C34.26725139 18.15893907 28.67855351 16.84057799 23.0625 15.4375 C22.09892578 15.22287109 21.13535156 15.00824219 20.14257812 14.78710938 C13.80069161 13.17021008 10.39355171 11.11884397 6.42919922 5.87329102 C4.60077003 3.47671821 2.42768406 1.7655884 0 0 Z " fill="#D2D4E0" transform="translate(215,236)"/>
<path d="M0 0 C2.97 0.99 5.94 1.98 9 3 C9 14.88 9 26.76 9 39 C6.03 39 3.06 39 0 39 C0 26.13 0 13.26 0 0 Z " fill="#CB202E" transform="translate(232,111)"/>
<path d="M0 0 C0.74507812 0.00451172 1.49015625 0.00902344 2.2578125 0.01367188 C4.0885764 0.02540754 5.91929873 0.0433415 7.75 0.0625 C6.54618552 2.55611571 5.29571278 4.74393083 3.75 7.0625 C3.36500109 8.71799531 3.02206865 10.3847433 2.75 12.0625 C-0.66600147 12.56711625 -4.0828994 13.06538576 -7.5 13.5625 C-8.46808594 13.70558594 -9.43617187 13.84867188 -10.43359375 13.99609375 C-11.36816406 14.13144531 -12.30273438 14.26679688 -13.265625 14.40625 C-14.12446289 14.53193359 -14.98330078 14.65761719 -15.86816406 14.78710938 C-18.25 15.0625 -18.25 15.0625 -22.25 15.0625 C-22.25 11.1025 -22.25 7.1425 -22.25 3.0625 C-19.77604167 2.57421875 -17.30208333 2.0859375 -14.828125 1.59765625 C-13.32028989 1.28466623 -11.8169048 0.94342087 -10.33203125 0.53515625 C-6.92642715 -0.23797339 -3.47349194 -0.03988993 0 0 Z " fill="#0637A8" transform="translate(110.25,236.9375)"/>
<path d="M0 0 C-0.33 1.65 -0.66 3.3 -1 5 C-8.26 5.66 -15.52 6.32 -23 7 C-23.33 21.85 -23.66 36.7 -24 52 C-25.98 52.495 -25.98 52.495 -28 53 C-28 36.17 -28 19.34 -28 2 C-5 0 -5 0 0 0 Z " fill="#709BDC" transform="translate(73,140)"/>
<path d="M0 0 C10.46630933 0.44637458 20.67716783 1.1214634 31 3 C30.690625 3.598125 30.38125 4.19625 30.0625 4.8125 C28.89790296 7.08956772 28.89790296 7.08956772 28 10 C19.93649887 10.12867289 12.02502344 9.79681084 4 9 C2.68 6.03 1.36 3.06 0 0 Z " fill="#0E46C1" transform="translate(156,239)"/>
<path d="M0 0 C9.51389771 1.68794959 18.71881118 4.3511204 28 7 C28 9.31 28 11.62 28 14 C19 12 10 10 1 8 C0.67 5.36 0.34 2.72 0 0 Z " fill="#063AAE" transform="translate(228,248)"/>
<path d="M0 0 C1.38294718 0.01329757 2.76582404 0.03715018 4.1484375 0.0703125 C4.85484375 0.07933594 5.56125 0.08835938 6.2890625 0.09765625 C8.03399848 0.12123647 9.77876045 0.15710789 11.5234375 0.1953125 C11.5234375 3.1653125 11.5234375 6.1353125 11.5234375 9.1953125 C3.1084375 9.6903125 3.1084375 9.6903125 -5.4765625 10.1953125 C-5.4765625 0.30767205 -5.4765625 0.30767205 0 0 Z " fill="#DADDE5" transform="translate(170.4765625,148.8046875)"/>
<path d="M0 0 C0 2.97 0 5.94 0 9 C-8.415 9.495 -8.415 9.495 -17 10 C-17 7.36 -17 4.72 -17 2 C-11.35600642 -0.44064587 -6.02248522 -0.19289099 0 0 Z " fill="#DBDDE5" transform="translate(151,151)"/>
<path d="M0 0 C1.39456452 0.00667256 2.78911118 0.01863093 4.18359375 0.03515625 C4.89451172 0.03966797 5.60542969 0.04417969 6.33789062 0.04882812 C8.09899388 0.06064761 9.86005411 0.07858362 11.62109375 0.09765625 C11.62109375 2.73765625 11.62109375 5.37765625 11.62109375 8.09765625 C7.9472188 8.95064001 4.57635445 9.20555096 0.80859375 9.16015625 C-0.65513672 9.14662109 -0.65513672 9.14662109 -2.1484375 9.1328125 C-3.25251953 9.11541016 -3.25251953 9.11541016 -4.37890625 9.09765625 C-4.4765625 2.9453125 -4.4765625 2.9453125 -4.37890625 1.09765625 C-3.37890625 0.09765625 -3.37890625 0.09765625 0 0 Z " fill="#E1E4EE" transform="translate(176.37890625,95.90234375)"/>
<path d="M0 0 C5.28 0 10.56 0 16 0 C16 2.64 16 5.28 16 8 C10.63904667 9.12862175 5.44693314 9.09688221 0 9 C0 6.03 0 3.06 0 0 Z " fill="#E2E7F1" transform="translate(203,94)"/>
<path d="M0 0 C3.63 0 7.26 0 11 0 C11 3.3 11 6.6 11 10 C7.37 10 3.74 10 0 10 C0 6.7 0 3.4 0 0 Z " fill="#FAAEB8" transform="translate(190,120)"/>
<path d="M0 0 C3.96 0 7.92 0 12 0 C12 2.97 12 5.94 12 9 C8.04 9 4.08 9 0 9 C0 6.03 0 3.06 0 0 Z " fill="#8FB1F5" transform="translate(113,122)"/>
<path d="M0 0 C0 2.97 0 5.94 0 9 C-3.12889199 9.782223 -5.1400091 10.11433318 -8.25 10.0625 C-10.10625 10.0315625 -10.10625 10.0315625 -12 10 C-12 7.03 -12 4.06 -12 1 C-7.915021 0.45533613 -4.1274515 0 0 0 Z " fill="#A7C5FA" transform="translate(125,89)"/>
<path d="M0 0 C3.63 0 7.26 0 11 0 C11 2.97 11 5.94 11 9 C7.37 9 3.74 9 0 9 C0 6.03 0 3.06 0 0 Z " fill="#B3CCFA" transform="translate(95,123)"/>
<path d="M0 0 C3.63 0 7.26 0 11 0 C11 2.97 11 5.94 11 9 C7.37 9 3.74 9 0 9 C0 6.03 0 3.06 0 0 Z " fill="#8EB1F6" transform="translate(95,106)"/>
<path d="M0 0 C3.63 0 7.26 0 11 0 C11 2.97 11 5.94 11 9 C7.37 9 3.74 9 0 9 C0 6.03 0 3.06 0 0 Z " fill="#BCD2FC" transform="translate(95,74)"/>
<path d="M0 0 C3.96 0 7.92 0 12 0 C12 2.64 12 5.28 12 8 C6.06 8.495 6.06 8.495 0 9 C0 6.03 0 3.06 0 0 Z " fill="#7CA3F3" transform="translate(113,73)"/>
<path d="M0 0 C3.3 0 6.6 0 10 0 C10 2.97 10 5.94 10 9 C6.7 9 3.4 9 0 9 C0 6.03 0 3.06 0 0 Z " fill="#CDCFDD" transform="translate(150,176)"/>
<path d="M0 0 C3.63 0 7.26 0 11 0 C11 2.64 11 5.28 11 8 C7.37 8 3.74 8 0 8 C0 5.36 0 2.72 0 0 Z " fill="#CFE1FD" transform="translate(95,91)"/>
<path d="M0 0 C3.3 0 6.6 0 10 0 C10 2.64 10 5.28 10 8 C6.7 8.33 3.4 8.66 0 9 C0 6.03 0 3.06 0 0 Z " fill="#FD9598" transform="translate(190,138)"/>
<path d="M0 0 C4.95 0 9.9 0 15 0 C15 2.97 15 5.94 15 9 C13.02 9 11.04 9 9 9 C9 6.36 9 3.72 9 1 C6.03 1 3.06 1 0 1 C0 0.67 0 0.34 0 0 Z " fill="#7287BC" transform="translate(167,149)"/>
<path d="M0 0 C3.63 0 7.26 0 11 0 C11 2.97 11 5.94 11 9 C9.02 9 7.04 9 5 9 C5 6.36 5 3.72 5 1 C3.35 1 1.7 1 0 1 C0 0.67 0 0.34 0 0 Z " fill="#758CC0" transform="translate(140,151)"/>
<path d="M0 0 C5.28 0 10.56 0 16 0 C16 2.64 16 5.28 16 8 C14.02 8 12.04 8 10 8 C10 5.69 10 3.38 10 1 C6.7 1 3.4 1 0 1 C0 0.67 0 0.34 0 0 Z " fill="#6C8DD3" transform="translate(203,94)"/>
<path d="M0 0 C1.98 0 3.96 0 6 0 C6 2.64 6 5.28 6 8 C1.545 8.495 1.545 8.495 -3 9 C-2.01 8.67 -1.02 8.34 0 8 C0 5.36 0 2.72 0 0 Z " fill="#7A99D6" transform="translate(182,96)"/>
<path d="M0 0 C2 1 4 2 6 3 C8.24974161 3.15495763 10.50371536 3.25010928 12.7578125 3.31640625 C13.42086395 3.33718735 14.08391541 3.35796844 14.76705933 3.37937927 C16.88626694 3.44479231 19.005599 3.50372105 21.125 3.5625 C22.56121081 3.60569309 23.99740902 3.64930764 25.43359375 3.69335938 C28.95559594 3.80046499 32.47773825 3.90175575 36 4 C36.33 3.34 36.66 2.68 37 2 C37 2.99 37 3.98 37 5 C32.21290532 5.12358454 27.42673819 5.21432771 22.63842773 5.2746582 C21.0096825 5.29980568 19.38105015 5.33392878 17.75268555 5.37719727 C15.41166366 5.4378455 13.07213269 5.46620476 10.73046875 5.48828125 C10.00224411 5.51408768 9.27401947 5.5398941 8.52372742 5.56648254 C6.46166992 5.56762695 6.46166992 5.56762695 3 5 C1.0168457 2.46948242 1.0168457 2.46948242 0 0 Z " fill="#E73039" transform="translate(187,145)"/>
<path d="M0 0 C2.97 0 5.94 0 9 0 C9 2.64 9 5.28 9 8 C8.01 8 7.02 8 6 8 C6 5.69 6 3.38 6 1 C4.02 1 2.04 1 0 1 C0 0.67 0 0.34 0 0 Z " fill="#CBD1E1" transform="translate(173,96)"/>
<path d="M0 0 C1.9375 0.0625 1.9375 0.0625 4 1 C5.25 4.0625 5.25 4.0625 6 7 C5.34 7 4.68 7 4 7 C3.67 5.35 3.34 3.7 3 2 C0.94729537 3.84188612 0.94729537 3.84188612 0 6 C-0.66 6 -1.32 6 -2 6 C-1.125 1.125 -1.125 1.125 0 0 Z " fill="#FDE03F" transform="translate(234,1)"/>
<path d="M0 0 C0.99 0 1.98 0 3 0 C3 2.64 3 5.28 3 8 C1.35 8 -0.3 8 -2 8 C-1.34 7.67 -0.68 7.34 0 7 C0 4.69 0 2.38 0 0 Z " fill="#BFC8DA" transform="translate(210,95)"/>
<path d="M0 0 C0.66 0.33 1.32 0.66 2 1 C1.01 2.32 0.02 3.64 -1 5 C0.65 5.33 2.3 5.66 4 6 C0.98968256 6.93423645 0.13349732 7.04449911 -3 6 C-3 4.35 -3 2.7 -3 1 C-2.01 0.67 -1.02 0.34 0 0 Z " fill="#FDEB50" transform="translate(206,30)"/>
<path d="M0 0 C0 0.66 0 1.32 0 2 C-3.50776784 3.60355101 -6.14354879 4.22036864 -10 4 C-6.74659338 1.32755885 -4.23938937 0 0 0 Z " fill="#FCE853" transform="translate(224,25)"/>
</svg>
